<svg xmlns="http://www.w3.org/2000/svg" viewBox="0 0 1600 900"><defs><linearGradient id="t" y2="1"><stop stop-color="#dfeff4"/><stop offset="1" stop-color="#a3bdc9"/></linearGradient></defs><rect width="1600" height="900" fill="url(#t)"/><rect y="610" width="1600" height="290" fill="#8faab8"/><path d="M0 610h1600" stroke="#e1eff3" stroke-width="14"/><g fill="#c5dbe3" stroke="#7c9aa8" stroke-width="9"><circle cx="350" cy="330" r="150"/><circle cx="800" cy="330" r="150"/><circle cx="1250" cy="330" r="150"/></g><g fill="#eaf6f8"><path d="m350 220 28 78 82 0-66 48 25 80-69-48-69 48 25-80-66-48h82Z"/><circle cx="800" cy="330" r="74"/><path d="m1250 220 28 78 82 0-66 48 25 80-69-48-69 48 25-80-66-48h82Z"/></g><path d="M0 760h1600" stroke="#d8e9ee" stroke-width="10"/></svg>
